<mxfile host="app.diagrams.net" agent="Mozilla/5.0 (Windows NT 10.0; Win64; x64) AppleWebKit/537.36 (KHTML, like Gecko) Chrome/135.0.0.0 Safari/537.36" version="26.2.9">
  <diagram name="Halaman-1" id="AEovRsnBFGGIwCzMUkJ2">
    <mxGraphModel dx="699" dy="351" grid="1" gridSize="10" guides="1" tooltips="1" connect="1" arrows="1" fold="1" page="1" pageScale="1" pageWidth="827" pageHeight="1169" math="0" shadow="0">
      <root>
        <mxCell id="0" />
        <mxCell id="1" parent="0" />
        <mxCell id="iiTEztLCNNFZLTMeGl9U-1" value="User" style="rounded=1;whiteSpace=wrap;html=1;" vertex="1" parent="1">
          <mxGeometry x="340" y="60" width="120" height="60" as="geometry" />
        </mxCell>
        <mxCell id="iiTEztLCNNFZLTMeGl9U-2" value="" style="endArrow=classic;html=1;rounded=0;exitX=0.5;exitY=1;exitDx=0;exitDy=0;" edge="1" parent="1" source="iiTEztLCNNFZLTMeGl9U-1">
          <mxGeometry width="50" height="50" relative="1" as="geometry">
            <mxPoint x="390" y="250" as="sourcePoint" />
            <mxPoint x="400" y="170" as="targetPoint" />
          </mxGeometry>
        </mxCell>
        <mxCell id="iiTEztLCNNFZLTMeGl9U-3" value="Aplikasi Menampilkan Daftar Kegiatan&lt;div&gt;&amp;nbsp;(Taks List)&amp;nbsp;&lt;/div&gt;" style="rounded=0;whiteSpace=wrap;html=1;" vertex="1" parent="1">
          <mxGeometry x="290" y="170" width="220" height="60" as="geometry" />
        </mxCell>
        <mxCell id="iiTEztLCNNFZLTMeGl9U-10" value="Daily Activity Schedule" style="text;html=1;align=center;verticalAlign=middle;whiteSpace=wrap;rounded=0;fillColor=#fff2cc;strokeColor=#d6b656;fontFamily=Times New Roman;fontSize=20;" vertex="1" parent="1">
          <mxGeometry x="100" y="40" width="190" height="50" as="geometry" />
        </mxCell>
        <mxCell id="iiTEztLCNNFZLTMeGl9U-13" value="User Bisa Memilih Klik New Task atau Klik Task Yang Sudah Ada (Edit &amp;amp; Hapus)" style="rounded=0;whiteSpace=wrap;html=1;" vertex="1" parent="1">
          <mxGeometry x="305" y="270" width="190" height="60" as="geometry" />
        </mxCell>
        <mxCell id="iiTEztLCNNFZLTMeGl9U-14" value="" style="endArrow=classic;html=1;rounded=0;exitX=0.5;exitY=1;exitDx=0;exitDy=0;entryX=0.5;entryY=0;entryDx=0;entryDy=0;" edge="1" parent="1" source="iiTEztLCNNFZLTMeGl9U-3" target="iiTEztLCNNFZLTMeGl9U-13">
          <mxGeometry width="50" height="50" relative="1" as="geometry">
            <mxPoint x="410" y="260" as="sourcePoint" />
            <mxPoint x="460" y="210" as="targetPoint" />
          </mxGeometry>
        </mxCell>
        <mxCell id="iiTEztLCNNFZLTMeGl9U-15" value="" style="endArrow=none;html=1;rounded=0;entryX=0.5;entryY=1;entryDx=0;entryDy=0;" edge="1" parent="1" target="iiTEztLCNNFZLTMeGl9U-13">
          <mxGeometry width="50" height="50" relative="1" as="geometry">
            <mxPoint x="400" y="370" as="sourcePoint" />
            <mxPoint x="450" y="320" as="targetPoint" />
          </mxGeometry>
        </mxCell>
        <mxCell id="iiTEztLCNNFZLTMeGl9U-16" value="" style="endArrow=none;html=1;rounded=0;" edge="1" parent="1">
          <mxGeometry width="50" height="50" relative="1" as="geometry">
            <mxPoint x="330" y="370" as="sourcePoint" />
            <mxPoint x="400" y="370" as="targetPoint" />
          </mxGeometry>
        </mxCell>
        <mxCell id="iiTEztLCNNFZLTMeGl9U-18" value="Ya" style="edgeLabel;html=1;align=center;verticalAlign=middle;resizable=0;points=[];" vertex="1" connectable="0" parent="iiTEztLCNNFZLTMeGl9U-16">
          <mxGeometry x="-0.2" y="-1" relative="1" as="geometry">
            <mxPoint as="offset" />
          </mxGeometry>
        </mxCell>
        <mxCell id="iiTEztLCNNFZLTMeGl9U-17" value="" style="endArrow=none;html=1;rounded=0;" edge="1" parent="1">
          <mxGeometry width="50" height="50" relative="1" as="geometry">
            <mxPoint x="400" y="370" as="sourcePoint" />
            <mxPoint x="470" y="370" as="targetPoint" />
          </mxGeometry>
        </mxCell>
        <mxCell id="iiTEztLCNNFZLTMeGl9U-19" value="Tidak" style="edgeLabel;html=1;align=center;verticalAlign=middle;resizable=0;points=[];" vertex="1" connectable="0" parent="iiTEztLCNNFZLTMeGl9U-17">
          <mxGeometry x="-0.2672" y="-1" relative="1" as="geometry">
            <mxPoint as="offset" />
          </mxGeometry>
        </mxCell>
        <mxCell id="iiTEztLCNNFZLTMeGl9U-20" value="" style="endArrow=classic;html=1;rounded=0;" edge="1" parent="1">
          <mxGeometry width="50" height="50" relative="1" as="geometry">
            <mxPoint x="330" y="370" as="sourcePoint" />
            <mxPoint x="330" y="410" as="targetPoint" />
          </mxGeometry>
        </mxCell>
        <mxCell id="iiTEztLCNNFZLTMeGl9U-21" value="" style="endArrow=classic;html=1;rounded=0;" edge="1" parent="1">
          <mxGeometry width="50" height="50" relative="1" as="geometry">
            <mxPoint x="470" y="370" as="sourcePoint" />
            <mxPoint x="470" y="410" as="targetPoint" />
          </mxGeometry>
        </mxCell>
        <mxCell id="iiTEztLCNNFZLTMeGl9U-24" value="User Klik New Task" style="rounded=0;whiteSpace=wrap;html=1;" vertex="1" parent="1">
          <mxGeometry x="280" y="410" width="120" height="60" as="geometry" />
        </mxCell>
        <mxCell id="iiTEztLCNNFZLTMeGl9U-25" value="Klik Task Yang Sudah Ada" style="rounded=0;whiteSpace=wrap;html=1;" vertex="1" parent="1">
          <mxGeometry x="414" y="410" width="120" height="60" as="geometry" />
        </mxCell>
        <mxCell id="iiTEztLCNNFZLTMeGl9U-26" value="" style="endArrow=classic;html=1;rounded=0;" edge="1" parent="1">
          <mxGeometry width="50" height="50" relative="1" as="geometry">
            <mxPoint x="340" y="470" as="sourcePoint" />
            <mxPoint x="340" y="500" as="targetPoint" />
          </mxGeometry>
        </mxCell>
        <mxCell id="iiTEztLCNNFZLTMeGl9U-27" value="Masukan Detail Task" style="rounded=0;whiteSpace=wrap;html=1;" vertex="1" parent="1">
          <mxGeometry x="280" y="500" width="120" height="60" as="geometry" />
        </mxCell>
        <mxCell id="iiTEztLCNNFZLTMeGl9U-28" value="" style="endArrow=classic;html=1;rounded=0;" edge="1" parent="1">
          <mxGeometry width="50" height="50" relative="1" as="geometry">
            <mxPoint x="340" y="560" as="sourcePoint" />
            <mxPoint x="340" y="590" as="targetPoint" />
          </mxGeometry>
        </mxCell>
        <mxCell id="iiTEztLCNNFZLTMeGl9U-29" value="Klik Simpan Perubahan/Save" style="rounded=0;whiteSpace=wrap;html=1;" vertex="1" parent="1">
          <mxGeometry x="280" y="590" width="120" height="60" as="geometry" />
        </mxCell>
        <mxCell id="iiTEztLCNNFZLTMeGl9U-31" value="" style="endArrow=classic;html=1;rounded=0;" edge="1" parent="1">
          <mxGeometry width="50" height="50" relative="1" as="geometry">
            <mxPoint x="340" y="650" as="sourcePoint" />
            <mxPoint x="340" y="680" as="targetPoint" />
          </mxGeometry>
        </mxCell>
        <mxCell id="iiTEztLCNNFZLTMeGl9U-32" value="Task Tersimpan&lt;br&gt;Dan Proses Selesai" style="rounded=0;whiteSpace=wrap;html=1;" vertex="1" parent="1">
          <mxGeometry x="280" y="680" width="120" height="60" as="geometry" />
        </mxCell>
        <mxCell id="iiTEztLCNNFZLTMeGl9U-33" value="" style="endArrow=classic;html=1;rounded=0;entryX=0.462;entryY=0.023;entryDx=0;entryDy=0;entryPerimeter=0;" edge="1" parent="1" target="iiTEztLCNNFZLTMeGl9U-34">
          <mxGeometry width="50" height="50" relative="1" as="geometry">
            <mxPoint x="470" y="470" as="sourcePoint" />
            <mxPoint x="470" y="510" as="targetPoint" />
          </mxGeometry>
        </mxCell>
        <mxCell id="iiTEztLCNNFZLTMeGl9U-34" value="User Ingin Edit atau Hapus" style="rounded=0;whiteSpace=wrap;html=1;" vertex="1" parent="1">
          <mxGeometry x="414" y="500" width="120" height="60" as="geometry" />
        </mxCell>
        <mxCell id="iiTEztLCNNFZLTMeGl9U-35" value="" style="endArrow=classic;html=1;rounded=0;entryX=0.417;entryY=-0.022;entryDx=0;entryDy=0;entryPerimeter=0;" edge="1" parent="1" target="iiTEztLCNNFZLTMeGl9U-37">
          <mxGeometry width="50" height="50" relative="1" as="geometry">
            <mxPoint x="473.86" y="560" as="sourcePoint" />
            <mxPoint x="474" y="590" as="targetPoint" />
          </mxGeometry>
        </mxCell>
        <mxCell id="iiTEztLCNNFZLTMeGl9U-37" value="Jika Pilih Edit,User Melakukan Perubahan/Editan Terbaru Dan Menyimpannya" style="rounded=0;whiteSpace=wrap;html=1;" vertex="1" parent="1">
          <mxGeometry x="414" y="590" width="146" height="60" as="geometry" />
        </mxCell>
        <mxCell id="iiTEztLCNNFZLTMeGl9U-39" value="" style="endArrow=classic;html=1;rounded=0;entryX=0.41;entryY=-0.023;entryDx=0;entryDy=0;entryPerimeter=0;" edge="1" parent="1" target="iiTEztLCNNFZLTMeGl9U-40">
          <mxGeometry width="50" height="50" relative="1" as="geometry">
            <mxPoint x="473.86" y="650" as="sourcePoint" />
            <mxPoint x="474" y="680" as="targetPoint" />
          </mxGeometry>
        </mxCell>
        <mxCell id="iiTEztLCNNFZLTMeGl9U-40" value="Jika Pilih Hapus,Konfirmasi Hapus,lalu Data Dihapus" style="rounded=0;whiteSpace=wrap;html=1;" vertex="1" parent="1">
          <mxGeometry x="414" y="680" width="146" height="60" as="geometry" />
        </mxCell>
        <mxCell id="iiTEztLCNNFZLTMeGl9U-42" value="Jika User Tidak Melakukan Aksi Apapun, Maka Daftar Task Tetap Tampil Tanpa Ada&amp;nbsp; Perubahan" style="rounded=1;whiteSpace=wrap;html=1;fillColor=#fff2cc;strokeColor=#d6b656;" vertex="1" parent="1">
          <mxGeometry x="324" y="760" width="186" height="60" as="geometry" />
        </mxCell>
      </root>
    </mxGraphModel>
  </diagram>
</mxfile>
